<?xml version="1.0" encoding="utf-8"?>
<!-- Generator: Adobe Illustrator 21.1.0, SVG Export Plug-In . SVG Version: 6.00 Build 0)  -->
<svg version="1.1" id="Calque_1" xmlns="http://www.w3.org/2000/svg" xmlns:xlink="http://www.w3.org/1999/xlink" x="0px" y="0px"
	 viewBox="0 0 351.5 79.5" style="enable-background:new 0 0 351.5 79.5;" xml:space="preserve">
<style type="text/css">
	.st0{fill:url(#SVGID_1_);}
	.st1{fill:url(#SVGID_2_);}
	.st2{fill:url(#SVGID_3_);}
	.st3{fill:url(#SVGID_4_);}
	.st4{fill:url(#SVGID_5_);}
	.st5{fill:url(#SVGID_6_);}
	.st6{fill:url(#SVGID_7_);}
	.st7{fill:url(#SVGID_8_);}
	.st8{fill:url(#SVGID_9_);}
	.st9{fill:url(#SVGID_10_);}
	.st10{fill:url(#SVGID_11_);}
	.st11{fill:url(#SVGID_12_);}
	.st12{fill:url(#SVGID_13_);}
	.st13{fill:url(#SVGID_14_);}
</style>
<path d="M350,27.9c-0.9-1.6-2.6-2.7-4.4-2.7h-8.3c0.5-1.3,0.4-2.8-0.2-4.1c-0.9-1.6-2.6-2.7-4.4-2.7h-7.5c-1.6,0-3.1,0.8-4.1,2.1
	l-4.3,5.9c-1.1-0.7-2.6-1.3-4.7-1.3h-20.8c-0.1,0-0.3,0-0.4,0c-3,0-5.5,0.4-7.6,1.3c-0.9-0.8-2.1-1.3-3.3-1.3h-8
	c-1.7,0-3.3,0.9-4.3,2.4l-1.3,2c-0.1-0.6-0.3-1.3-0.6-1.8c-0.9-1.6-2.6-2.6-4.4-2.6h-24.6c-0.1,0-0.3,0-0.4,0
	c-2.5,0-4.7,0.3-6.5,0.9c-0.8-0.6-1.8-0.9-2.9-0.9h-7.8c-1.6,0-3.1,0.8-4.1,2.1l-0.3,0.4c-2.4-1.6-6.1-2.4-11.2-2.4h-25.8
	c-1.6,0-3.1,0.8-4.1,2.1l-0.4,0.5c-2.4-1.7-6.2-2.6-11.4-2.6h-19.7c-1.6,0-3.2,0.8-4.1,2.2l-0.2,0.3c-2.4-1.6-6.1-2.5-11.2-2.5
	h-19.4c-0.8,0-1.6,0.2-2.3,0.6c-0.7-0.4-1.5-0.6-2.3-0.6h-7.3c-1.6,0-3.1,0.8-4.1,2.1l-3.2,4.4c0,0.1-0.1,0.1-0.1,0.2l-4.7,7.1
	l-3.7,0l1-1.3l3.3-4.4c1.1-1.5,1.3-3.5,0.5-5.2c-0.8-1.7-2.6-2.8-4.5-2.8h-2.6c0.5-1.3,0.4-2.7-0.2-4c-0.9-1.7-2.6-2.7-4.5-2.7h-7
	c-1.6,0-3,0.7-4,2l-3.6,4.7l-13.3,0c-7.7,0-12.7,1.8-15.1,5.6L22.8,41c-0.6,0.9-0.9,2-0.9,3.1c0.3,5.3,5.1,8,14.3,8h13.1
	c0.1,0,0.3,0,0.4,0c0.2,0,0.4,0,0.7,0c-0.5,1.3-0.5,2.8,0.1,4c0.8,1.7,2.6,2.8,4.5,2.8h26.2c6.4,0,9.9-3,11.7-5.5L94,52
	c0.4,0.1,0.8,0.2,1.2,0.2h7.8c1.6,0,3.1-0.8,4.1-2.1l3.1-4.3l5.3-7.3h3.4l-4.1,5.8c-1.1,1.5-1.2,3.5-0.4,5.2
	c0.9,1.7,2.6,2.7,4.4,2.7h8c1.6,0,3-0.7,3.9-1.9c0.6,0.4,1.4,0.8,2.3,1.1c1.8,0.6,4.1,0.9,7.2,0.9h13c3.7,0,6.7-0.4,9.1-1.3
	c0.9,0.8,2,1.2,3.3,1.2h7.8c1.5,0,2.9-0.7,3.8-1.8c0.9,1.1,2.3,1.8,3.8,1.8h6.9c1.5,0,2.8-0.6,3.8-1.7c0.9,1.1,2.3,1.7,3.8,1.7h8
	c0.6,0,1.2-0.1,1.7-0.3c0.5,0.2,1.1,0.3,1.7,0.3h7.7c1.5,0,3-0.7,3.9-1.9c0.6,0.4,1.4,0.8,2.3,1.1c1.8,0.6,4.1,0.9,7.2,0.9h10.1
	c-0.5,1.3-0.5,2.8,0.2,4.1c0.8,1.7,2.6,2.8,4.5,2.8h15.1c1.2,0,2.2-0.1,3.2-0.3l0,0h10.2h3.2h2.5l0.4-0.5c1.5,0.5,3.1,0.5,4.3,0.5
	h8.4h2.5l0.3-0.4c1.5,0.4,3,0.4,4.2,0.4h5c0.3,0,0.6,0,0.9,0h5.6h3h2.5h0.5h2.7h2.6h0.4h3.1h2.6l1.5-2.2l0.4-0.6l1.5-2.1l2-2.7
	l-0.9-1.5l2.1-2.1c1.4-1.4,1.9-3.6,1.1-5.4c-0.8-1.9-2.6-3.1-4.6-3.1h-1.4l0.3-0.5h7h8.1c1.6,0,3.2-0.8,4.1-2.1l2.2-3.2
	C350.7,31.6,350.8,29.6,350,27.9z M257.4,43.2c-0.1-0.6-0.2-1.2-0.5-1.7c-0.9-1.7-2.6-2.7-4.4-2.7h-14.1l0.3-0.4c0.1,0,0.3,0,0.5,0
	h6.5h13.8c0.5,0,1-0.1,1.4-0.2L257.4,43.2z M48,38.5l-0.3,0.4c-0.1,0-0.3,0-0.5,0h-2.7l0.3-0.4L48,38.5L48,38.5z"/>
<g>
	
		<linearGradient id="SVGID_1_" gradientUnits="userSpaceOnUse" x1="19.414" y1="221.4257" x2="19.414" y2="222.4797" gradientTransform="matrix(1 0 0 1 254 -167.7197)">
		<stop  offset="0" style="stop-color:#FFFFFF"/>
		<stop  offset="0.4908" style="stop-color:#FFFFFF"/>
		<stop  offset="0.5" style="stop-color:#DADADA"/>
		<stop  offset="1" style="stop-color:#FFFFFF"/>
	</linearGradient>
	<path class="st0" d="M274.6,54.8h-3.2l0.8-1.1h3.2L274.6,54.8z"/>
	
		<linearGradient id="SVGID_2_" gradientUnits="userSpaceOnUse" x1="31.6428" y1="218.8422" x2="31.6428" y2="222.4477" gradientTransform="matrix(1 0 0 1 254 -167.7197)">
		<stop  offset="0" style="stop-color:#FFFFFF"/>
		<stop  offset="0.4908" style="stop-color:#FFFFFF"/>
		<stop  offset="0.5" style="stop-color:#DADADA"/>
		<stop  offset="1" style="stop-color:#FFFFFF"/>
	</linearGradient>
	<path class="st1" d="M287,51.8h-2.5c-0.6,0-1.1,0.1-1.4,0.2l-1.4,1.7c0.1,0.1,0.5,0.2,1.1,0.2h8l-0.5,0.7h-8.4c-2,0-3-0.2-3.2-0.5
		c0-0.1,0-0.1,0-0.2l1.7-2.2c0.2-0.4,1.2-0.6,2.9-0.6h9.5l-0.5,0.7L287,51.8L287,51.8L287,51.8z"/>
	
		<linearGradient id="SVGID_3_" gradientUnits="userSpaceOnUse" x1="46.8357" y1="218.8442" x2="46.8357" y2="222.4487" gradientTransform="matrix(1 0 0 1 254 -167.7197)">
		<stop  offset="0" style="stop-color:#FFFFFF"/>
		<stop  offset="0.4908" style="stop-color:#FFFFFF"/>
		<stop  offset="0.5" style="stop-color:#DADADA"/>
		<stop  offset="1" style="stop-color:#FFFFFF"/>
	</linearGradient>
	<path class="st2" d="M306.1,54c-0.3,0.5-1.6,0.7-3.9,0.7h-5c-2,0-3-0.2-3.2-0.5c0-0.1,0-0.1,0-0.2l1.7-2.2c0.2-0.4,1.2-0.6,2.9-0.6
		h5.1c2.3,0,3.7,0.2,4,0.7L306.1,54z M299.8,51.8c-0.7,0-1.1,0.1-1.4,0.2l-1.4,1.7c0.1,0.1,0.5,0.2,1.1,0.2l4.1,0
		c0.4,0,0.6-0.1,0.8-0.2l1.4-1.7c-0.1-0.2-0.5-0.2-0.9-0.2h-1.2L299.8,51.8L299.8,51.8z"/>
	
		<linearGradient id="SVGID_4_" gradientUnits="userSpaceOnUse" x1="63.193" y1="218.8437" x2="63.193" y2="222.4407" gradientTransform="matrix(1 0 0 1 254 -167.7197)">
		<stop  offset="0" style="stop-color:#FFFFFF"/>
		<stop  offset="0.4908" style="stop-color:#FFFFFF"/>
		<stop  offset="0.5" style="stop-color:#DADADA"/>
		<stop  offset="1" style="stop-color:#FFFFFF"/>
	</linearGradient>
	<path class="st3" d="M316.7,52.2l0.3-0.4h-2.9l-0.2,0.2l-1.4,1.7l-0.7,0.9h-3l0.6-0.7l1.7-2.2l0.5-0.6h10c2.3,0,3.7,0.2,4,0.7
		L324,54l-0.5,0.7h-3.1l2-2.7c-0.1-0.2-0.4-0.2-0.9-0.2h-2l-0.2,0.4l-1.8,2.5h-2.7L316.7,52.2z"/>
</g>
<g>
	
		<linearGradient id="SVGID_5_" gradientUnits="userSpaceOnUse" x1="-204.163" y1="191.1847" x2="-204.163" y2="214.8576" gradientTransform="matrix(1 0 0 1 254 -167.7197)">
		<stop  offset="0" style="stop-color:#FFFFFF"/>
		<stop  offset="0.4908" style="stop-color:#FFFFFF"/>
		<stop  offset="0.5" style="stop-color:#DADADA"/>
		<stop  offset="1" style="stop-color:#FFFFFF"/>
	</linearGradient>
	<path class="st4" d="M26.9,43.9L34,33.6c1.4-2.3,5.1-3.4,11-3.4l15.8,0l5.1-6.6h7l-7.6,10.2l-7.5,10.4c-1.1,2.1-3.9,3.1-8.4,3H36.2
		C30.1,47.1,27,46,26.9,43.9z M40.7,43.9h6.5c1.7,0,2.9-0.4,3.8-1.1l6-8.2c0-0.7-0.9-1-2.5-1H44c-1,0.1-1.8,0.4-2.4,1l-6.1,8.2
		c0.1,0.7,0.8,1.1,2.1,1.1H40.7z"/>
	
		<linearGradient id="SVGID_6_" gradientUnits="userSpaceOnUse" x1="-175.0185" y1="197.9187" x2="-175.0185" y2="221.6847" gradientTransform="matrix(1 0 0 1 254 -167.7197)">
		<stop  offset="0" style="stop-color:#FFFFFF"/>
		<stop  offset="0.4908" style="stop-color:#FFFFFF"/>
		<stop  offset="0.5" style="stop-color:#DADADA"/>
		<stop  offset="1" style="stop-color:#FFFFFF"/>
	</linearGradient>
	<path class="st5" d="M102.9,30.2l-2,3.3l-7.1,10.2L91.4,47l-2.5,3.5c-1.7,2.3-4.2,3.5-7.7,3.5H55l2.4-3.1h19.9
		c2.3-0.1,4-0.6,5.1-1.7l1.5-2.1l-14.2,0c-5.1,0-7.6-0.8-7.6-2.5c0-0.3,0.1-0.7,0.3-1.1l7.5-10.4l2.2-3h7.9l-3.3,4.4l-6,8.2
		c0,0.7,0.9,1,2.5,1l10.6,0l2.3,0l6.2-9.3l3.2-4.4L102.9,30.2L102.9,30.2z"/>
	
		<linearGradient id="SVGID_7_" gradientUnits="userSpaceOnUse" x1="-138.2495" y1="197.9217" x2="-138.2495" y2="214.8557" gradientTransform="matrix(1 0 0 1 254 -167.7197)">
		<stop  offset="0" style="stop-color:#FFFFFF"/>
		<stop  offset="0.4908" style="stop-color:#FFFFFF"/>
		<stop  offset="0.5" style="stop-color:#DADADA"/>
		<stop  offset="1" style="stop-color:#FFFFFF"/>
	</linearGradient>
	<path class="st6" d="M122.5,33.5h-9.6l-0.7,1.1l-6,8.2l-3.1,4.3h-7.8l2.6-3.5l7.5-10.4l2.2-3h19.4c6.1,0,9.2,1.1,9.3,3.3l-7.1,10.3
		l-2.2,3.4h-8l8.9-12.5c-0.2-0.7-0.8-1.1-2.1-1.1H122.5z"/>
	
		<linearGradient id="SVGID_8_" gradientUnits="userSpaceOnUse" x1="-101.8315" y1="197.9217" x2="-101.8315" y2="214.9037" gradientTransform="matrix(1 0 0 1 254 -167.7197)">
		<stop  offset="0" style="stop-color:#FFFFFF"/>
		<stop  offset="0.4908" style="stop-color:#FFFFFF"/>
		<stop  offset="0.5" style="stop-color:#DADADA"/>
		<stop  offset="1" style="stop-color:#FFFFFF"/>
	</linearGradient>
	<path class="st7" d="M159.5,36.9h1.7l1.8-2.3c-0.2-0.7-0.8-1.1-2.1-1.1h-20.7l2.2-3.3h19.7c6.1,0,9.2,1.1,9.3,3.3l-7.1,10.3
		c-1.4,2.3-5.1,3.4-11,3.4h-13c-5.1,0-7.6-0.8-7.6-2.5c0-0.3,0.1-0.7,0.3-1.1l3.7-5.2c0.7-1,2-1.5,3.8-1.5H159.5z M159.1,40.3h-4.6
		h-11.2l-1.9,2.5c0,0.7,0.9,1,2.5,1l10.6,0c0.9-0.1,1.8-0.5,2.6-1.1L159.1,40.3z"/>
	
		<linearGradient id="SVGID_9_" gradientUnits="userSpaceOnUse" x1="-64.524" y1="197.9217" x2="-64.524" y2="214.8557" gradientTransform="matrix(1 0 0 1 254 -167.7197)">
		<stop  offset="0" style="stop-color:#FFFFFF"/>
		<stop  offset="0.4908" style="stop-color:#FFFFFF"/>
		<stop  offset="0.5" style="stop-color:#DADADA"/>
		<stop  offset="1" style="stop-color:#FFFFFF"/>
	</linearGradient>
	<path class="st8" d="M189.6,35.4l1.4-2h-7.5l-0.8,1.1l-6,8.2l-3.1,4.3h-7.8l2.6-3.5l7.5-10.4l2.2-3h25.8c6.1,0,9.2,1.1,9.3,3.3
		L206,43.8l-2.2,3.4h-8l8.9-12.5c-0.2-0.7-0.8-1.1-2.1-1.1h-5.1l-1.2,2l-8,11.7h-6.9L189.6,35.4z"/>
	
		<linearGradient id="SVGID_10_" gradientUnits="userSpaceOnUse" x1="-36.877" y1="197.9207" x2="-36.877" y2="214.8547" gradientTransform="matrix(1 0 0 1 254 -167.7197)">
		<stop  offset="0" style="stop-color:#FFFFFF"/>
		<stop  offset="0.4908" style="stop-color:#FFFFFF"/>
		<stop  offset="0.5" style="stop-color:#DADADA"/>
		<stop  offset="1" style="stop-color:#FFFFFF"/>
	</linearGradient>
	<path class="st9" d="M214.8,47.1h-7.7l12.2-16.9h7.8L214.8,47.1z"/>
	
		<linearGradient id="SVGID_11_" gradientUnits="userSpaceOnUse" x1="-12.9045" y1="197.9179" x2="-12.9045" y2="214.9017" gradientTransform="matrix(1 0 0 1 254 -167.7197)">
		<stop  offset="0" style="stop-color:#FFFFFF"/>
		<stop  offset="0.4908" style="stop-color:#FFFFFF"/>
		<stop  offset="0.5" style="stop-color:#DADADA"/>
		<stop  offset="1" style="stop-color:#FFFFFF"/>
	</linearGradient>
	<path class="st10" d="M245.6,33.5h-6.5c-1.7,0-3,0.4-3.8,1.1l-6,8.2c0,0.7,0.9,1,2.5,1h20.7l-2.3,3.3h-21.8c-5.1,0-7.6-0.8-7.6-2.5
		c0-0.3,0.1-0.7,0.3-1.1l7.5-10.4c1.1-2.1,3.9-3.1,8.4-3h24.6l-2.2,3.3L245.6,33.5L245.6,33.5z"/>
	
		<linearGradient id="SVGID_12_" gradientUnits="userSpaceOnUse" x1="7.4719" y1="197.9687" x2="7.4719" y2="221.7327" gradientTransform="matrix(1 0 0 1 254 -167.7197)">
		<stop  offset="0" style="stop-color:#009FE3"/>
		<stop  offset="1" style="stop-color:#0075BF"/>
	</linearGradient>
	<path class="st11" d="M277.8,33.5l-7.1,10.2l-2.4,3.4l-2.5,3.5c-1.7,2.3-4.2,3.5-7.7,3.5H243l2.3-3.1h8.9c2.3-0.1,4-0.6,5.1-1.7
		l9.9-14.6l2.7-4.4h8L277.8,33.5z"/>
	
		<linearGradient id="SVGID_13_" gradientUnits="userSpaceOnUse" x1="40.7253" y1="197.9179" x2="40.7253" y2="214.9017" gradientTransform="matrix(1 0 0 1 254 -167.7197)">
		<stop  offset="0" style="stop-color:#009FE3"/>
		<stop  offset="1" style="stop-color:#0075BF"/>
	</linearGradient>
	<path class="st12" d="M286.8,40.4h-1.5l-1.8,2.4c0,0.7,0.9,1,2.5,1h20.7l-2.3,3.3h-21.8c-5.1,0-7.6-0.8-7.6-2.5
		c0-0.3,0.1-0.7,0.3-1.1l7.5-10.4c1.1-2.1,3.9-3.1,8.4-3h20.9c2.5,0,3,1.1,1.6,3.3l-2.8,4.6c-1.2,1.6-3,2.3-5.4,2.3L286.8,40.4
		L286.8,40.4z M305.3,35.2c1.4-1.3,1-1.8-1.2-1.7h-10.8c-1.7,0-3,0.4-3.8,1.1l-2.1,2.3h5.1H304L305.3,35.2L305.3,35.2L305.3,35.2z"
		/>
	
		<linearGradient id="SVGID_14_" gradientUnits="userSpaceOnUse" x1="74.0574" y1="191.1857" x2="74.0574" y2="214.8557" gradientTransform="matrix(1 0 0 1 254 -167.7197)">
		<stop  offset="0" style="stop-color:#009FE3"/>
		<stop  offset="1" style="stop-color:#0075BF"/>
	</linearGradient>
	<path class="st13" d="M335.2,33.5h-9.4l-1,1.1l-6,8.2c0,0.8,0.9,1.2,2.5,1.1h7.9l-3.2,3.2h-8.3c-4.9,0-7.3-1.2-7.1-3.5l7.5-10.4
		l7-9.7h7.5l-4.7,6.8h17.6l-2.2,3.2L335.2,33.5L335.2,33.5z"/>
</g>
</svg>
